<svg width="887" height="887" viewBox="0 0 887 887" fill="none" xmlns="http://www.w3.org/2000/svg">
<path d="M443.204 886.164C687.978 886.164 886.407 687.789 886.407 443.082C886.407 198.375 687.978 0 443.204 0C198.429 0 0 198.375 0 443.082C0 687.789 198.429 886.164 443.204 886.164Z" fill="#ECEFF0"/>
<path d="M440.675 113.719C439.832 113.719 438.147 113.719 437.305 113.719V165.103C451.629 164.26 546.842 160.049 602.453 232.492C661.434 309.989 654.693 331.048 654.693 371.481C654.693 411.915 608.351 490.254 608.351 490.254C608.351 490.254 576.332 540.796 594.027 587.968C594.027 587.968 486.175 605.658 438.147 732.012V768.233C438.99 768.233 440.675 768.233 441.518 768.233C621.832 768.233 768.443 621.662 768.443 441.397C767.601 259.447 621.832 113.719 440.675 113.719Z" fill="url(#paint0_linear)"/>
<path d="M617.622 231.649C585.603 196.27 543.473 163.418 439.835 162.576C399.39 162.576 337.038 171.842 289.01 223.226C259.52 254.393 238.455 293.142 244.353 356.319C246.038 369.796 265.418 385.801 251.936 412.757C251.936 412.757 222.446 464.983 223.288 474.249C223.288 474.249 222.446 490.254 247.723 491.096C247.723 491.096 253.622 491.939 251.936 505.417V524.791C251.936 524.791 252.779 530.687 263.733 534.057C263.733 534.057 265.418 535.742 262.89 539.953C262.89 539.953 256.992 546.692 267.103 560.17C270.473 565.224 276.372 571.121 273.001 584.598C273.001 584.598 268.788 609.869 278.057 615.766C278.057 615.766 289.01 629.244 333.668 623.347C348.835 621.662 378.325 614.081 395.177 635.14C395.177 635.14 436.464 713.48 438.992 732.012C438.992 732.012 508.927 607.342 594.872 587.968C594.872 587.968 573.807 540.796 616.779 480.146C616.779 480.146 669.862 410.23 671.548 371.481C669.862 370.639 683.344 305.777 617.622 231.649ZM547.686 464.141C511.455 464.983 509.77 441.397 492.918 422.865C490.39 422.865 487.862 422.865 485.335 423.708C443.205 424.55 450.788 379.905 433.936 367.269C394.335 337.787 338.723 363.058 309.233 333.575C299.964 324.309 291.538 315.043 290.696 302.408C287.325 272.083 294.909 259.447 309.233 243.442C348.835 201.324 400.233 192.058 436.464 192.058C533.362 192.901 567.909 221.541 594.029 251.024C637.844 299.88 640.372 341.998 639.529 357.161C639.529 358.846 640.372 360.53 640.372 362.215C641.214 419.496 599.085 462.456 547.686 464.141Z" fill="url(#paint1_linear)"/>
<path d="M491.234 395.067C493.762 396.752 496.289 397.595 498.817 398.437L499.66 404.333C499.66 406.018 501.345 407.703 503.873 407.703H513.141C514.826 407.703 516.512 406.018 517.354 404.333L518.197 398.437C520.725 397.595 523.252 396.752 525.78 395.067L530.836 399.279C532.521 400.122 535.049 400.122 535.891 399.279L542.632 392.54C544.317 390.856 544.317 389.171 542.632 387.486L539.262 382.432C540.947 379.905 541.789 377.378 542.632 374.008L548.53 373.166C550.215 373.166 551.901 371.481 551.901 368.954V359.688C551.901 358.004 550.215 356.319 548.53 355.476L542.632 354.634C541.789 352.107 540.947 348.738 539.262 346.21L542.632 341.999C543.475 340.314 543.475 337.787 542.632 336.945L535.891 330.206C534.206 328.521 532.521 328.521 530.836 330.206L526.623 333.575C524.095 331.89 521.567 331.048 518.197 330.206L517.354 325.151C517.354 323.467 515.669 321.782 513.141 321.782H503.873C502.188 321.782 500.502 323.467 499.66 325.151L498.817 330.206C495.447 331.048 492.919 331.89 490.391 333.575L486.178 330.206C484.493 329.363 481.965 329.363 481.123 330.206L474.382 336.945C472.697 338.629 472.697 340.314 474.382 341.999L477.752 346.21C476.067 348.738 475.225 352.107 474.382 355.476L469.326 356.319C467.641 356.319 465.956 358.004 465.956 360.531V369.797C465.956 371.481 467.641 373.166 469.326 374.008L475.225 374.851C476.067 377.378 476.91 380.747 478.595 383.274L475.225 387.486C474.382 389.171 474.382 391.698 475.225 392.54L481.965 399.279C483.65 400.964 485.336 400.964 487.021 399.279L491.234 395.067ZM497.132 353.792C503.03 347.895 513.141 347.895 519.039 353.792C524.938 359.688 524.938 369.797 519.039 375.693C513.141 381.59 503.03 381.59 497.132 375.693C491.234 369.797 491.234 359.688 497.132 353.792Z" fill="url(#paint2_linear)"/>
<path d="M582.233 307.462L575.492 308.304C573.807 308.304 572.122 309.989 572.122 311.674V315.043C569.594 315.885 567.066 316.728 565.381 318.413L562.011 315.885C560.325 315.043 557.798 315.043 556.955 316.728L552.742 321.782C551.057 323.467 551.899 325.151 552.742 326.836L555.27 329.363C554.427 331.89 553.585 334.417 552.742 336.944L548.529 337.787C546.844 337.787 545.159 340.314 545.159 341.999L546.001 348.737C546.001 350.422 547.686 352.107 549.372 352.107H553.585C554.427 354.634 555.27 356.319 556.955 358.846L554.427 362.215C553.585 363.9 553.585 366.427 555.27 367.269L560.325 371.481C562.011 373.166 563.696 372.324 565.381 371.481L568.751 368.112C570.436 368.954 572.964 369.797 575.492 369.797L576.335 374.008C576.335 375.693 578.862 377.378 580.548 377.378L587.288 376.535C588.973 376.535 590.659 374.851 590.659 373.166V368.954C593.187 368.112 594.872 367.269 596.557 365.585L599.927 368.112C601.612 368.954 604.14 368.954 604.983 367.269L609.196 362.215C610.881 360.531 610.038 358.846 609.196 357.161L605.825 353.792C606.668 351.265 607.511 349.58 608.353 347.053L612.566 346.21C614.251 346.21 615.937 343.683 615.937 341.999L615.094 335.26C615.094 333.575 613.409 331.89 611.724 331.89H607.511C606.668 329.363 605.825 327.678 604.14 325.151L606.668 321.782C607.511 320.097 607.51 317.57 605.825 316.728L600.77 312.516C599.085 310.831 597.399 311.674 595.714 312.516L593.186 315.043C590.659 314.201 588.974 313.358 586.446 312.516L585.603 308.304C585.603 309.147 583.918 307.462 582.233 307.462ZM590.659 351.265C586.446 356.319 578.02 357.161 572.964 352.949C567.909 348.737 567.066 340.314 571.279 335.26C575.492 330.206 583.918 329.363 588.973 333.575C594.872 337.787 595.714 346.21 590.659 351.265Z" fill="url(#paint3_linear)"/>
<path d="M546.844 419.496C546.001 421.18 546.001 423.707 546.844 424.55L549.372 427.077C551.057 428.762 552.742 428.762 554.427 427.077L556.955 425.392C558.64 426.234 560.325 427.077 562.011 427.919V431.289C562.011 432.973 563.696 434.658 566.224 434.658H570.437C572.122 434.658 573.807 432.973 574.65 431.289V428.761C576.335 427.919 578.02 427.919 579.705 427.077L582.233 428.761C583.918 429.604 586.446 429.604 587.288 428.761L589.816 426.234C591.501 424.55 591.501 422.865 589.816 421.18L588.131 418.653C588.974 416.968 589.816 415.284 590.659 412.757H593.187C594.872 412.757 596.557 411.072 596.557 408.545V404.333C596.557 402.648 594.872 400.964 593.187 400.121H590.659C589.816 398.436 589.816 395.909 588.131 394.225L589.816 392.54C590.659 390.855 590.659 388.328 589.816 387.486L587.288 384.959C585.603 383.274 583.918 383.274 582.233 384.959L580.548 386.643C578.863 385.801 577.177 384.959 575.492 384.116V381.589C575.492 379.905 573.807 378.22 571.279 378.22H567.066C565.381 378.22 563.696 379.905 562.853 381.589V384.116C561.168 384.959 558.64 385.801 556.955 386.643L555.27 384.959C553.585 384.116 551.057 384.116 550.214 384.959L547.687 387.486C546.001 389.171 546.001 390.855 547.687 392.54L549.372 394.225C548.529 395.909 547.687 398.436 546.844 400.121H544.316C542.631 400.121 540.946 401.806 540.946 404.333V408.545C540.946 410.23 542.631 411.914 544.316 412.757H546.844C547.687 414.441 548.529 416.126 549.372 417.811L546.844 419.496ZM562.011 398.436C566.224 394.225 572.964 394.225 576.335 398.436C580.548 402.648 580.548 409.387 576.335 412.757C572.122 416.968 565.381 416.968 562.011 412.757C557.798 409.387 557.798 402.648 562.011 398.436Z" fill="url(#paint4_linear)"/>
<path d="M347.15 330.206C340.41 327.679 337.039 320.097 336.197 309.147C335.354 298.196 337.882 285.561 342.937 272.925C347.993 260.29 354.734 248.497 362.317 240.915C369.9 233.334 378.326 229.965 384.225 232.492C390.965 235.019 394.336 242.6 395.178 253.551C396.021 264.502 393.493 277.137 388.438 289.772C383.382 302.408 376.641 314.201 369.058 321.782C361.475 329.363 353.891 332.733 347.15 330.206ZM384.225 235.019C379.169 233.334 372.428 235.861 365.688 242.6C358.104 250.181 351.363 260.29 347.15 272.925C342.937 285.561 340.41 298.196 340.41 308.304C341.252 317.57 343.78 324.309 348.836 326.836C353.891 328.521 360.632 325.994 367.373 319.255C374.956 311.674 381.697 301.565 385.91 288.93C390.965 276.295 392.65 263.659 392.65 253.551C391.808 243.443 389.28 237.546 384.225 235.019Z" fill="url(#paint5_linear)"/>
<path d="M381.697 325.994C379.17 325.151 376.642 323.466 374.114 321.782C364.003 315.885 353.892 305.777 345.466 293.984C338.725 285.56 334.512 276.294 331.142 267.028C327.772 258.605 326.929 251.023 328.614 245.127C329.457 240.915 331.984 237.546 334.512 235.019C340.41 231.649 349.679 232.491 359.79 239.23C369.901 245.127 380.012 255.235 388.438 267.028C395.179 275.452 399.392 284.718 402.762 293.984C406.133 302.407 406.975 309.989 405.29 315.885C404.447 320.097 401.92 323.466 399.392 325.994C394.336 329.363 388.438 329.363 381.697 325.994ZM349.679 239.23C343.781 236.703 338.725 236.703 335.355 239.23C332.827 240.915 331.142 243.442 331.142 246.812C328.614 257.762 335.355 276.294 347.994 293.141C356.42 304.935 365.688 314.201 375.799 320.097C385.068 325.151 392.651 326.836 397.707 324.309C400.234 322.624 401.92 320.097 401.92 316.728C404.447 305.777 397.707 287.245 385.068 270.398C376.642 258.605 367.373 249.339 357.262 243.442C354.734 240.915 352.207 240.073 349.679 239.23Z" fill="url(#paint6_linear)"/>
<path d="M324.399 304.092C317.658 301.565 312.603 297.353 311.76 292.299C310.918 288.93 311.76 284.718 313.445 280.506C316.816 275.452 322.714 270.398 330.297 266.186C338.723 261.974 347.992 258.605 358.945 256.078C373.27 252.708 387.594 252.708 398.547 254.393C410.344 256.92 417.927 261.974 419.612 268.713C420.455 272.082 419.612 276.294 417.927 280.506C414.557 285.56 408.658 290.614 401.075 294.826C392.649 299.038 383.381 302.407 372.427 304.935C358.103 308.304 343.779 308.304 332.825 306.619C330.297 306.619 327.77 305.777 324.399 304.092ZM359.788 258.605V260.289C339.566 264.501 322.714 273.767 316.816 283.033C315.131 286.403 314.288 288.93 315.131 291.457C316.816 296.511 323.557 300.723 333.668 303.25C344.621 305.777 358.103 304.935 372.427 301.565C392.649 297.353 409.501 288.087 415.399 278.821C417.084 275.452 417.927 272.925 417.084 270.398C415.399 265.344 408.658 261.132 398.547 258.605C387.594 256.078 374.112 256.92 359.788 260.289V258.605Z" fill="url(#paint7_linear)"/>
<path d="M366.528 293.984C373.508 293.984 379.167 288.327 379.167 281.348C379.167 274.37 373.508 268.713 366.528 268.713C359.548 268.713 353.889 274.37 353.889 281.348C353.889 288.327 359.548 293.984 366.528 293.984Z" fill="url(#paint8_linear)"/>
<path d="M323.557 278.821C326.35 278.821 328.613 276.558 328.613 273.767C328.613 270.976 326.35 268.713 323.557 268.713C320.765 268.713 318.502 270.976 318.502 273.767C318.502 276.558 320.765 278.821 323.557 278.821Z" fill="url(#paint9_linear)"/>
<path d="M380.013 328.521C382.805 328.521 385.068 326.258 385.068 323.467C385.068 320.675 382.805 318.412 380.013 318.412C377.22 318.412 374.957 320.675 374.957 323.467C374.957 326.258 377.22 328.521 380.013 328.521Z" fill="url(#paint10_linear)"/>
<path d="M392.652 251.023C395.444 251.023 397.707 248.761 397.707 245.969C397.707 243.178 395.444 240.915 392.652 240.915C389.86 240.915 387.596 243.178 387.596 245.969C387.596 248.761 389.86 251.023 392.652 251.023Z" fill="url(#paint11_linear)"/>
<path d="M525.779 280.506L504.714 301.565C490.39 315.885 466.797 315.885 453.316 301.565C439.834 287.245 439.834 265.343 454.158 251.866L475.223 230.807L487.862 243.442L466.797 264.501C460.057 271.24 459.214 281.348 465.112 288.93C468.482 293.141 472.695 294.826 477.751 295.668C482.806 296.511 487.862 293.984 491.232 290.614L512.297 269.555L525.779 280.506Z" fill="url(#paint12_linear)"/>
<path d="M490.39 240.073L486.177 244.285L473.539 231.649L477.752 227.437C478.594 226.595 481.122 226.595 481.964 227.437L490.39 235.861C492.076 236.703 492.076 239.23 490.39 240.073Z" fill="url(#paint13_linear)"/>
<path d="M528.307 277.979L524.094 282.191L511.455 269.555L515.668 265.344C516.511 264.501 517.353 264.501 517.353 264.501C517.353 264.501 519.038 264.501 519.038 265.344L527.464 273.767C528.307 274.609 528.307 275.452 528.307 275.452C529.15 276.294 529.15 277.137 528.307 277.979Z" fill="url(#paint14_linear)"/>
<path d="M529.148 249.339L518.195 238.388L529.148 228.28L497.13 235.019L508.084 245.969L497.972 256.078L529.148 249.339Z" fill="url(#paint15_linear)"/>
<path d="M74.1498 355.476L111.224 363.9L110.381 368.111L73.3071 359.688L74.1498 355.476Z" fill="#2271BF"/>
<path d="M70.7776 368.954L98.5832 373.166L97.7406 376.535H94.3702C95.2128 378.22 95.2129 379.905 96.0554 381.59C96.0554 383.274 96.898 384.959 96.0554 387.486C96.0554 389.171 95.2128 390.855 94.3702 392.54C93.5276 394.225 91.8425 394.225 90.9999 394.225C90.1573 394.225 87.6295 394.225 85.9443 394.225L67.4072 390.855L68.2498 386.644L86.7869 390.013C87.6295 390.013 89.3147 390.013 90.1572 390.013C90.9998 390.013 91.8425 389.171 92.6851 388.328C93.5277 387.486 93.5276 386.644 94.3702 384.959C94.3702 384.117 94.3702 382.432 94.3702 381.59C94.3702 380.747 94.3702 379.905 93.5276 379.062C93.5276 378.22 92.6851 377.378 92.6851 375.693L70.7776 372.324V368.954Z" fill="#2271BF"/>
<path d="M66.5633 400.122L94.3688 403.491L93.5262 407.703L65.7207 404.333L66.5633 400.122ZM98.5818 404.333C98.5818 403.491 98.5818 403.491 99.4244 403.491L103.637 404.333C104.48 404.333 104.48 404.333 104.48 405.176V407.703V408.545C104.48 408.545 104.48 408.545 103.637 408.545L99.4244 407.703C98.5818 407.703 98.5818 407.703 98.5818 406.86V404.333Z" fill="#2271BF"/>
<path d="M64.0376 422.023C64.0376 420.338 64.8802 418.653 64.8802 417.811C65.7228 416.969 66.5654 416.126 68.2506 415.284C69.9357 414.442 71.6209 414.442 73.3061 414.442L88.4728 415.284V411.072H91.0006L91.8432 415.284L99.4265 416.126V419.496L91.8432 418.653L91.0006 427.077L88.4728 427.919L89.3154 419.496H73.3061C72.4635 419.496 70.7784 419.496 70.7784 419.496C69.9358 419.496 69.0931 420.338 69.0931 420.338C69.0931 420.338 68.2506 421.181 68.2506 422.023C68.2506 422.865 68.2506 422.865 68.2506 423.708L67.408 427.077H64.0376V422.023Z" fill="#2271BF"/>
<path d="M64.0376 432.973L91.8432 433.816V438.027L64.0376 437.185V432.973ZM96.8988 434.658C96.8988 433.816 96.8987 433.816 97.7413 433.816H101.954C102.797 433.816 102.797 433.816 102.797 434.658V437.185V438.027C102.797 438.027 102.797 438.027 101.954 438.027H97.7413C96.8987 438.027 96.8988 438.028 96.8988 437.185V434.658Z" fill="#2271BF"/>
<path d="M63.1943 451.505C63.1943 449.821 64.0369 448.136 64.8795 446.451C65.7221 444.766 67.4073 444.766 69.9351 443.924H71.6203C74.1481 443.924 75.8332 444.766 76.6758 445.609C77.5184 446.451 80.0462 449.82 80.0462 453.19V462.456H83.4166C84.2592 462.456 85.9443 462.456 85.9443 461.614C86.7869 460.771 87.6296 460.771 87.6296 459.086C88.4722 458.244 88.4721 456.559 88.4721 454.875V446.451H91C91 447.293 91.8425 448.978 91.8425 450.663C91.8425 452.348 91.8425 454.032 91.8425 456.559C91.8425 459.086 91.8425 460.771 91 462.456C90.1574 464.141 89.3147 464.983 88.4721 465.825C87.6295 466.668 85.9444 466.668 83.4166 466.668L64.0369 467.51V464.141L67.4073 463.298C67.4073 463.298 67.4073 462.456 66.5647 462.456C66.5647 461.614 65.7221 460.771 65.7221 459.929C65.7221 459.086 64.8795 457.402 64.8795 456.559C64.0369 454.032 63.1943 453.19 63.1943 451.505ZM66.5647 453.19C66.5647 454.032 66.5647 454.875 66.5647 455.717C66.5647 456.559 66.5647 457.402 67.4073 458.244C67.4073 459.086 68.2499 459.929 68.2499 460.771C68.2499 461.614 69.0925 462.456 69.0925 462.456C69.0925 463.298 69.0925 463.298 69.0925 463.298H77.5184L76.6758 454.875C76.6758 453.19 75.8333 451.505 74.9907 450.663C74.1481 449.82 73.3055 449.82 71.6203 449.82H70.7777C69.9351 449.82 69.0925 449.82 68.2499 450.663C67.4073 451.505 67.4073 451.505 66.5647 452.348C66.5647 451.505 66.5647 452.348 66.5647 453.19Z" fill="#2271BF"/>
<path d="M65.7207 485.2C65.7207 483.515 65.7207 481.83 66.5633 480.988C67.4059 480.146 68.2484 478.461 69.091 478.461C69.9336 478.461 72.4615 477.619 74.1466 477.619L89.3133 476.776V472.564H91.8411L92.6837 476.776H100.267V480.146L92.6837 478.461L93.5263 486.042H90.1559L89.3133 478.461L74.1466 480.146C73.304 480.146 71.6188 480.146 71.6188 480.988C70.7762 480.988 70.7763 481.83 69.9337 481.83C69.0911 481.83 69.091 482.673 69.091 483.515C69.091 484.357 69.091 484.357 69.091 485.2V488.569H65.7207V485.2Z" fill="#2271BF"/>
<path d="M68.2509 507.101C67.4084 504.574 68.2509 502.047 68.2509 500.362C69.0935 498.678 69.9361 496.993 72.4639 496.15C74.1491 495.308 77.5194 494.466 80.8898 493.623C84.2602 492.781 87.6305 492.781 89.3157 493.623C91.8435 493.623 92.6861 495.308 94.3713 496.993C96.0564 498.677 96.0565 500.362 96.899 503.732C96.899 506.259 96.899 507.943 96.899 509.628C96.899 511.313 96.0564 512.155 94.3713 513.84C93.5287 514.682 91.0009 515.525 89.3157 515.525C87.6305 515.525 85.9454 515.525 85.1028 515.525C84.2602 515.525 83.4176 513.84 82.575 512.998C81.7324 512.155 81.7324 510.471 80.8898 508.786L79.2047 498.678C76.6769 498.678 74.9917 499.52 74.1491 500.362C72.4639 501.205 71.6213 502.047 71.6213 502.889C71.6213 504.574 70.7787 506.259 71.6213 507.943L73.3065 517.209H70.7787C69.9362 515.525 69.9362 513.84 69.9362 512.998C69.0936 510.471 68.2509 508.786 68.2509 507.101ZM81.7324 496.993L83.4176 507.101C83.4176 508.786 84.2602 509.628 85.1028 510.471C85.9454 511.313 86.788 511.313 88.4731 511.313C90.1583 511.313 91.0009 510.471 91.8435 509.628C92.6861 508.786 93.5287 507.943 93.5287 507.101C93.5287 506.259 93.5287 504.574 93.5287 502.889C93.5287 501.205 92.6861 499.52 91.8435 498.678C91.0009 497.835 90.1583 496.993 88.4731 496.993C86.788 496.993 85.1028 496.993 81.7324 496.993Z" fill="#2271BF"/>
<path d="M95.2114 552.589C95.2114 551.746 95.2114 550.904 96.054 550.061L99.4244 549.219C100.267 549.219 100.267 549.219 101.11 549.219L101.952 550.061L102.795 553.431C102.795 554.273 102.795 555.116 101.952 555.958L98.5817 556.8C97.7391 556.8 97.7392 556.8 96.8966 556.8C96.054 556.8 96.054 555.958 96.054 555.958L95.2114 552.589Z" fill="#2271BF"/>
<path d="M94.3716 598.919L129.761 583.756L131.446 587.968L96.0568 603.13L94.3716 598.919Z" fill="#2271BF"/>
<path d="M100.268 610.712L125.545 598.076L127.231 600.603L124.703 603.131C126.388 603.973 127.231 604.815 128.916 606.5C130.601 608.185 131.444 609.027 132.286 610.712C133.129 612.397 133.971 614.081 133.129 615.766C133.129 617.451 132.286 618.293 131.444 619.978C130.601 620.82 128.916 622.505 128.073 622.505L111.221 630.928L109.536 627.559L126.388 619.135C127.231 618.293 128.073 618.293 128.916 617.451C129.758 616.608 129.758 615.766 129.758 614.924C129.758 614.081 129.758 613.239 128.916 611.554C128.073 610.712 128.073 609.869 127.231 609.027C126.388 608.185 125.545 607.342 125.545 607.342C124.703 606.5 123.86 606.5 123.018 605.658L103.638 615.766L100.268 610.712Z" fill="#2271BF"/>
<path d="M119.648 647.776C118.805 646.091 117.963 644.406 117.963 643.564C117.963 642.722 117.963 641.037 118.805 640.194C119.648 639.352 121.333 637.667 123.018 636.825L136.5 629.244L133.972 625.032L136.5 623.347L139.028 626.717L145.768 623.347L147.454 625.874L141.555 630.086L145.768 636.825L142.398 638.51L139.028 631.771L125.546 639.352C124.704 640.194 123.861 640.195 123.018 641.037C122.176 641.879 122.176 642.722 122.176 642.722C122.176 643.564 122.176 643.564 122.176 644.406C122.176 645.249 122.176 645.249 123.018 646.091L124.704 649.46L122.176 651.145L119.648 647.776Z" fill="#2271BF"/>
<path d="M125.545 657.041L149.138 641.879L150.823 644.406L147.453 647.775C149.138 647.775 150.823 648.618 152.508 649.46C154.193 650.302 155.879 651.145 156.721 652.829L157.564 653.672C157.564 653.672 157.564 654.514 158.406 654.514L155.036 657.041C155.036 657.041 155.036 656.199 154.194 655.357C154.194 654.514 153.351 654.514 153.351 653.672C152.508 652.83 151.666 651.987 150.823 651.145C149.981 650.302 149.138 650.302 148.295 649.46C147.453 648.618 145.768 648.618 144.925 648.618L128.073 659.568L125.545 657.041Z" fill="#2271BF"/>
<path d="M144.924 684.839C144.081 683.155 142.396 681.47 142.396 680.628C141.554 678.943 141.554 678.1 141.554 676.416C141.554 674.731 142.396 673.889 143.239 672.204C144.081 670.519 145.767 668.835 148.294 667.15C150.822 665.465 152.507 663.78 154.193 662.938C155.878 662.096 157.563 662.096 159.248 662.096C160.933 662.096 161.776 662.938 163.461 663.78C165.146 664.623 165.989 666.307 166.832 667.992C167.674 669.677 169.359 671.362 169.359 672.204C170.202 673.889 170.202 674.731 170.202 676.416C170.202 678.1 169.359 678.943 168.517 680.628C167.674 682.312 165.989 683.997 163.461 685.682C160.933 687.366 159.248 689.051 157.563 689.051C155.878 689.894 154.193 689.894 152.507 689.894C150.822 689.894 149.98 689.051 148.294 688.209C147.452 687.366 145.767 686.524 144.924 684.839ZM147.452 683.155C148.294 683.997 149.137 684.839 149.98 685.682C150.822 686.524 151.665 686.524 152.507 686.524C153.35 686.524 155.035 686.524 155.878 685.682C157.563 684.839 159.248 683.997 160.933 682.312C162.619 680.628 164.304 679.785 165.146 678.1C165.989 676.416 166.832 675.573 166.832 674.731C166.832 673.889 166.832 673.046 166.832 672.204C166.832 671.362 165.989 670.519 165.146 669.677C164.304 668.835 163.461 667.992 162.619 667.15C161.776 666.307 160.933 666.307 160.091 666.307C159.248 666.307 157.563 666.307 156.72 667.15C155.878 667.992 153.35 668.835 151.665 670.519C149.98 672.204 148.294 673.046 147.452 674.731C146.609 675.573 145.767 677.258 145.767 678.1C145.767 678.943 145.767 679.785 145.767 680.628C145.767 680.628 146.609 681.47 147.452 683.155Z" fill="#2271BF"/>
<path d="M164.304 708.426C163.461 707.583 163.461 707.583 162.619 706.741C161.776 705.899 160.933 705.056 160.933 704.214C160.933 703.372 159.248 702.529 159.248 701.687C159.248 700.844 158.406 700.002 158.406 700.002L160.091 698.317L167.674 706.741C168.517 707.583 169.359 708.426 170.202 708.426C171.045 709.268 171.887 709.268 172.73 709.268C173.572 709.268 174.415 708.426 175.258 708.426L176.1 707.583C176.943 706.741 177.785 705.899 177.785 705.056C177.785 704.214 176.943 702.529 176.1 701.687L173.572 699.16C172.73 698.317 171.887 696.633 171.045 695.79C170.202 694.948 170.202 693.263 171.045 692.421C171.045 691.579 171.887 689.894 173.572 689.051L174.415 688.209C176.1 687.367 176.943 686.524 178.628 686.524C180.313 686.524 181.156 686.524 182.841 687.367C184.526 688.209 185.369 689.051 187.054 690.736C187.896 691.578 188.739 692.421 189.582 693.263C190.424 694.106 191.267 694.948 192.109 696.633C192.952 698.317 193.795 698.317 193.795 699.16L192.109 700.844L181.156 689.894C180.313 688.209 178.628 687.367 177.785 687.367C176.943 687.367 175.258 687.367 174.415 688.209L173.572 689.051C172.73 689.894 172.73 690.736 172.73 691.579C172.73 692.421 172.73 693.263 173.572 694.106C174.415 694.948 174.415 695.79 175.258 696.633L177.785 700.002C179.47 701.687 180.313 703.372 180.313 705.899C180.313 707.583 179.47 709.268 177.785 710.953L176.1 712.638C174.415 713.48 173.572 714.322 171.887 714.322C170.202 714.322 169.359 714.322 167.674 713.48C166.832 710.953 165.146 709.268 164.304 708.426Z" fill="#2271BF"/>
<path d="M168.519 730.327L196.324 701.687L198.852 704.214L197.167 706.741C198.009 706.741 198.852 706.741 199.694 707.583C200.537 707.583 202.222 708.426 203.065 709.268C203.907 710.11 204.75 710.11 205.593 710.953C207.278 711.795 208.12 713.48 208.12 715.164C208.12 716.849 208.12 717.692 208.12 719.376C208.12 721.061 207.278 722.746 206.435 723.588C205.593 725.273 204.75 726.115 203.065 727.8C200.537 730.327 198.852 732.012 197.167 732.854C195.482 733.696 192.954 734.539 191.269 733.696C189.583 732.854 187.898 732.854 186.213 731.169C185.37 730.327 184.528 728.642 183.685 726.958C182.843 725.273 182 724.43 182 722.746L171.889 733.696L168.519 730.327ZM187.898 726.958C188.741 727.8 189.583 728.642 191.269 728.642C192.111 728.642 193.796 728.642 195.481 727.8C197.167 726.958 198.852 726.115 200.537 723.588C202.222 721.903 203.907 720.219 203.907 718.534C204.75 716.849 204.75 715.165 204.75 714.322C204.75 713.48 203.907 711.795 203.065 710.953C202.222 710.11 200.537 709.268 199.694 708.426C198.009 707.583 197.167 707.583 196.324 706.741L184.528 719.376C185.37 721.061 185.37 721.903 186.213 723.588C185.37 725.273 186.213 726.115 187.898 726.958Z" fill="#2271BF"/>
<path d="M208.12 749.701C205.593 748.016 204.75 746.332 203.907 744.647C203.065 742.962 203.065 741.278 203.907 738.751C204.75 737.066 206.435 734.539 208.12 731.169C210.648 728.642 212.333 726.115 214.861 725.273C217.389 724.43 218.231 723.588 220.759 724.43C222.444 725.273 224.972 726.115 226.657 727.8C228.343 729.485 230.028 731.169 230.87 732.012C231.713 733.696 231.713 734.539 231.713 736.223C231.713 737.908 230.87 739.593 229.185 741.278C228.342 742.12 226.657 742.962 225.815 743.805C224.972 743.805 223.287 743.805 222.444 743.805C221.602 743.805 219.917 742.962 219.074 741.278L211.491 734.539C209.805 736.223 208.963 737.908 208.963 739.593C208.12 741.278 208.12 742.12 208.963 743.805C209.806 744.647 210.648 746.332 212.333 748.016L219.074 753.913L217.389 755.598C215.704 754.755 214.861 753.913 213.176 753.071C211.491 752.228 208.963 751.386 208.12 749.701ZM211.491 732.854L219.074 738.751C219.917 739.593 221.602 740.435 222.444 740.435C223.287 740.435 224.13 739.593 224.972 738.751C225.815 737.908 226.657 736.223 226.657 735.381C226.657 734.539 226.657 733.696 225.815 732.854C224.972 732.012 224.13 731.169 223.287 729.485C221.602 728.642 220.759 727.8 219.074 726.957C218.231 726.957 216.546 726.957 215.704 727.8C214.861 728.642 213.176 731.169 211.491 732.854Z" fill="#2271BF"/>
<path d="M230.869 767.391C229.184 766.548 228.341 765.706 227.499 764.021C226.656 763.179 225.813 761.494 225.813 759.809C225.813 758.125 225.813 756.44 226.656 754.755C227.499 753.071 228.341 750.543 230.026 748.859C231.712 746.332 233.397 744.647 235.082 743.805C236.767 742.962 237.61 742.12 239.295 741.277C240.98 741.277 241.823 741.277 243.508 741.277C245.193 742.12 246.036 742.12 247.721 743.805C248.563 744.647 250.249 745.489 251.091 746.332C251.934 747.174 253.619 748.016 254.462 749.701L252.776 751.386L246.036 746.332C244.35 745.489 243.508 744.647 241.823 744.647C240.138 744.647 239.295 744.647 237.61 745.489C235.925 746.332 234.239 748.016 232.554 750.544C230.869 753.071 230.026 754.755 229.184 756.44C229.184 758.125 229.184 759.809 230.026 760.652C230.869 761.494 231.712 763.179 233.397 764.021L240.138 769.075L238.452 770.76C237.61 770.76 236.767 769.918 235.925 769.075C235.082 768.233 234.239 768.233 233.397 767.391C233.397 769.075 232.554 768.233 230.869 767.391Z" fill="#2271BF"/>
<path d="M252.777 781.711C251.092 780.869 250.25 780.026 249.407 778.342C248.564 777.499 248.564 775.814 248.564 774.13C248.564 772.445 249.407 770.76 250.25 769.076L258.676 756.44L255.305 753.913L256.99 751.386L261.203 753.071L266.259 747.174L268.787 748.859L264.574 755.598L271.314 759.81L269.629 762.337L262.889 758.125L254.463 771.603C253.62 772.445 253.62 773.287 253.62 774.13C253.62 774.972 253.62 775.814 253.62 775.814C253.62 775.814 253.62 776.657 254.463 777.499L255.305 778.342L257.833 780.026L256.148 782.553L252.777 781.711Z" fill="#2271BF"/>
<path d="M298.279 786.765C297.437 785.923 296.594 785.923 297.437 784.238L299.122 780.869C299.122 780.026 299.965 780.026 299.965 780.026C299.965 780.026 300.807 780.026 301.65 780.026L305.02 781.711C305.863 782.553 306.705 783.396 305.863 784.238L304.178 787.607C304.178 788.45 303.335 788.45 303.335 788.45C303.335 788.45 302.492 788.45 301.65 788.45L298.279 786.765Z" fill="#2271BF"/>
<path d="M332.824 817.933L344.621 781.711L348.833 783.396L337.037 819.617L332.824 817.933Z" fill="#2271BF"/>
<path d="M345.463 822.987L352.204 796.031L355.574 796.873V800.243C357.259 799.4 358.944 799.4 360.63 798.558C362.315 798.558 364 798.558 366.528 798.558C368.213 798.558 369.898 799.4 370.741 801.085C371.583 802.77 372.426 803.612 372.426 804.455C373.268 804.455 374.954 803.612 375.796 803.612C377.481 803.612 378.324 802.77 380.009 802.77C381.694 802.77 382.537 802.77 384.222 802.77C385.907 803.612 387.592 803.612 388.435 805.297C389.278 806.139 390.12 807.824 390.12 809.509C390.12 811.194 390.12 812.878 390.12 814.563L385.907 833.095L381.694 832.253L385.907 814.563C385.907 813.721 385.907 812.036 385.907 811.194C385.907 810.351 385.065 809.509 384.222 808.666C383.38 807.824 382.537 807.824 381.694 806.982C380.009 806.982 378.324 806.139 376.639 806.982C374.954 806.982 373.268 807.824 371.583 807.824C371.583 808.666 371.583 808.666 371.583 809.509C371.583 810.351 371.583 810.351 371.583 811.194L367.37 828.883L363.157 828.041L367.37 810.351C367.37 809.509 367.37 807.824 367.37 806.982C367.37 806.139 366.528 805.297 365.685 804.455C364.843 803.612 364 803.612 363.157 802.77C362.315 802.77 360.63 802.77 359.787 802.77C358.944 802.77 358.102 802.77 356.417 802.77C355.574 802.77 354.731 803.612 353.046 803.612L349.676 823.829L345.463 822.987Z" fill="#2271BF"/>
<path d="M395.175 845.73L400.231 806.139H403.601V808.667C404.444 808.667 405.286 807.824 406.129 807.824C406.972 807.824 408.657 806.982 409.499 806.982C410.342 806.982 412.027 806.982 412.87 806.982C414.555 806.982 416.24 807.824 417.083 808.667C417.925 809.509 418.768 810.351 419.61 812.036C420.453 813.721 420.453 815.405 420.453 817.09C420.453 818.775 420.453 820.46 420.453 822.144C420.453 825.514 419.61 828.041 418.768 829.726C417.925 831.41 416.24 833.095 414.555 833.937C412.87 834.78 411.184 834.78 408.657 834.78C406.972 834.78 405.286 833.937 404.444 833.095C402.759 832.253 401.916 831.41 400.231 830.568L398.546 844.888L395.175 845.73ZM408.657 832.253C410.342 832.253 411.185 832.253 412.027 831.41C412.87 830.568 413.712 829.726 414.555 828.041C415.397 826.356 416.24 824.671 416.24 821.302C416.24 818.775 416.24 816.248 416.24 814.563C415.397 812.878 415.397 812.036 413.712 811.194C412.87 810.351 412.027 809.509 410.342 809.509C408.657 809.509 406.972 809.509 406.129 809.509C404.444 809.509 403.601 810.351 402.759 810.351L400.231 827.198C401.073 828.041 402.759 828.883 403.601 828.883C404.444 828.883 407.814 832.253 408.657 832.253Z" fill="#2271BF"/>
<path d="M428.036 837.307L429.721 809.509H433.091L433.934 814.563C435.619 812.878 436.462 812.036 438.147 811.194C439.832 810.351 441.517 809.509 443.202 810.351C444.045 810.351 444.045 810.351 444.888 810.351C445.73 810.351 445.73 810.351 445.73 810.351V814.563C444.888 814.563 444.887 814.563 444.045 814.563C443.202 814.563 443.202 814.563 442.36 814.563C440.675 814.563 439.832 814.563 438.989 814.563C438.147 814.563 437.304 815.405 436.462 815.405C435.619 815.405 434.776 817.09 433.934 817.932L433.091 837.307H428.036Z" fill="#2271BF"/>
<path d="M461.739 838.149C460.054 838.149 458.369 838.149 456.684 837.307C454.999 837.307 454.156 836.464 452.471 834.78C451.628 833.937 450.786 832.253 449.943 830.568C449.101 828.883 449.101 826.356 449.101 823.829C449.101 821.302 449.101 818.775 449.943 816.248C450.786 814.563 450.786 812.878 452.471 812.036C453.313 811.194 454.999 810.351 455.841 809.509C457.526 809.509 459.212 808.666 460.897 808.666C462.582 808.666 464.267 808.666 465.952 809.509C467.638 809.509 468.48 810.351 470.165 811.194C471.008 812.036 471.851 813.721 472.693 815.405C473.536 817.09 473.536 819.617 473.536 822.144C473.536 824.671 473.536 827.198 472.693 829.725C471.851 831.41 471.851 833.095 470.165 833.937C469.323 834.78 467.638 835.622 466.795 836.464C465.952 837.307 463.425 838.149 461.739 838.149ZM461.739 834.78C463.425 834.78 464.267 834.78 465.11 834.78C465.952 834.78 466.795 833.937 467.638 833.095C468.48 832.253 468.48 831.41 469.323 829.725C470.165 828.041 470.165 826.356 470.165 823.829C470.165 821.302 470.165 819.617 469.323 817.932C469.323 816.248 468.48 815.405 467.638 814.563C466.795 813.721 465.952 813.721 465.11 812.878C464.267 812.878 462.582 812.878 461.739 812.878C460.054 812.878 459.212 812.878 458.369 812.878C457.526 812.878 456.684 813.721 455.841 814.563C454.999 815.405 454.999 816.248 454.156 817.932C454.156 819.617 453.314 821.302 453.314 823.829C453.314 826.356 453.314 828.041 454.156 829.725C454.156 831.41 454.999 832.253 455.841 833.095C456.684 833.937 457.526 833.937 458.369 834.78C459.212 834.78 460.054 834.78 461.739 834.78Z" fill="#2271BF"/>
<path d="M489.547 836.464L476.908 809.509H481.121L492.075 832.252L498.816 807.824H503.029L494.603 836.464H489.547Z" fill="#2271BF"/>
<path d="M507.241 801.928C506.398 801.928 506.398 801.928 506.398 801.085L505.556 796.873C505.556 796.031 505.556 796.031 506.398 796.031H508.926H509.769C509.769 796.031 509.769 796.031 509.769 796.873L510.611 801.085C510.611 801.928 510.611 801.928 509.769 801.928H507.241ZM511.454 834.78L507.241 806.982L511.454 806.139L515.667 833.937L511.454 834.78Z" fill="#2271BF"/>
<path d="M534.204 830.568C533.361 830.568 532.518 830.568 531.676 831.41C530.833 831.41 529.991 831.41 528.305 832.253C527.463 832.253 526.62 832.253 524.935 832.253C524.092 832.253 523.25 832.253 523.25 832.253L522.407 829.726L533.361 827.198C534.204 827.198 535.046 826.356 535.889 826.356C536.731 826.356 537.574 825.514 537.574 824.671C537.574 823.829 537.574 822.987 537.574 822.144V821.302C537.574 820.46 536.731 819.617 535.889 818.775C535.046 817.933 533.361 817.933 531.676 818.775L527.463 819.617C525.778 819.617 524.092 819.617 523.25 819.617C521.565 819.617 520.722 818.775 519.879 817.933C519.037 817.09 518.194 815.405 518.194 813.721V812.036C518.194 810.351 518.194 808.667 518.194 807.824C519.037 806.982 519.88 805.297 520.722 804.455C521.565 803.612 524.092 802.77 525.778 802.77C526.62 802.77 527.463 802.77 529.148 801.928C530.833 801.085 531.676 801.928 532.518 801.085C533.361 800.243 535.046 801.085 535.889 801.085L536.731 803.612L526.62 805.297C524.935 805.297 523.25 806.139 522.407 806.982C521.565 807.824 521.565 808.667 521.565 810.351V811.194C521.565 812.036 522.407 812.878 522.407 813.721C523.25 814.563 523.25 814.563 524.092 814.563C524.935 814.563 525.778 814.563 526.62 814.563L530.833 813.721C533.361 812.878 535.046 813.721 536.731 814.563C538.416 815.405 539.259 817.09 540.102 818.775V820.46C540.102 822.144 540.102 823.829 540.102 824.671C540.102 825.514 538.416 826.356 536.731 827.198C537.574 829.726 535.889 830.568 534.204 830.568Z" fill="#2271BF"/>
<path d="M562.011 823.829C559.483 824.671 556.955 824.671 555.27 824.671C553.585 824.671 551.899 822.987 550.214 821.302C549.372 819.617 547.687 817.09 546.844 813.721C546.001 810.351 545.159 806.982 546.001 805.297C546.001 802.77 546.844 801.085 548.529 800.243C550.214 799.4 551.899 797.716 554.427 796.873C556.955 796.031 558.64 796.031 560.325 796.031C562.011 796.031 563.696 796.873 564.538 797.716C565.381 798.558 566.224 800.243 567.066 802.77C567.909 804.455 567.909 805.297 567.066 806.982C567.066 807.824 566.223 808.666 565.381 809.509C564.538 810.351 562.853 811.194 561.168 811.194L551.057 813.721C551.899 816.248 552.742 817.932 553.585 818.775C554.427 819.617 555.27 820.459 556.955 821.302C558.64 821.302 560.325 821.302 562.011 820.459L570.436 817.932L571.279 820.459C569.594 821.302 568.751 821.302 567.066 822.144C565.381 822.987 563.696 823.829 562.011 823.829ZM550.214 811.194L559.483 808.666C561.168 808.666 562.011 807.824 562.853 806.982C563.696 806.139 563.696 805.297 562.853 803.612C562.853 801.928 562.011 801.085 561.168 800.243C560.325 799.4 559.483 799.4 558.64 799.4C557.798 799.4 556.112 799.4 554.427 800.243C552.742 801.085 551.057 801.085 550.214 801.928C549.372 802.77 548.529 803.612 548.529 805.297C549.372 806.982 549.372 808.666 550.214 811.194Z" fill="#2271BF"/>
<path d="M603.297 791.819C602.454 792.662 601.612 791.819 600.769 790.977L599.084 787.607C599.084 786.765 599.084 786.765 599.084 785.923C599.084 785.08 599.926 785.08 599.926 785.08L603.297 783.396C604.139 782.553 604.982 783.396 605.825 784.238L607.51 787.607C607.51 788.45 607.51 788.45 607.51 789.292L606.667 790.135L603.297 791.819Z" fill="#2271BF"/>
<path d="M649.637 787.607L630.258 754.755L633.628 753.071L653.008 785.923L649.637 787.607Z" fill="#2271BF"/>
<path d="M661.437 780.869L646.27 757.283L648.798 755.598L651.326 757.283C652.168 755.598 653.011 753.913 653.853 753.071C654.696 751.386 656.381 750.544 658.066 748.859C659.752 748.017 661.437 747.174 663.122 747.174C664.807 747.174 665.65 748.017 667.335 748.859C669.02 749.701 669.863 750.544 670.705 752.228L680.816 768.233L677.446 770.76L667.335 755.598C666.492 754.755 665.65 753.913 664.807 753.071C663.964 752.228 663.122 752.228 662.279 752.228C661.437 752.228 660.594 752.228 658.909 753.071C658.066 753.913 657.224 754.755 656.381 754.755C655.539 754.755 654.696 756.44 654.696 757.283C653.853 758.125 653.853 758.967 653.011 759.81L664.807 778.341L661.437 780.869Z" fill="#2271BF"/>
<path d="M695.14 757.282C693.455 758.125 692.612 758.967 690.927 758.967C689.242 758.967 688.399 758.967 686.714 758.125C685.872 757.282 684.186 756.44 682.501 754.755L673.233 742.12L669.862 744.647L668.177 742.12L671.547 738.751L667.334 732.012L669.862 730.327L674.918 736.223L681.659 731.169L683.344 733.696L676.603 738.751L685.871 751.386C686.714 752.228 687.557 753.071 687.557 753.071C688.399 753.071 688.399 753.913 689.242 753.913C690.085 753.913 690.084 753.913 690.927 753.913C691.77 753.913 691.77 753.913 692.612 753.071L695.14 751.386L696.825 753.913L695.14 757.282Z" fill="#2271BF"/>
<path d="M712.834 743.805C710.306 745.489 708.621 747.174 706.936 747.174C705.251 748.016 703.565 747.174 701.038 746.332C699.352 745.489 696.825 742.962 694.297 740.435C691.769 737.908 690.084 735.381 689.241 732.854C688.399 731.169 688.399 728.642 689.241 726.957C690.084 725.273 691.769 723.588 693.454 721.903C695.139 720.219 696.825 719.376 698.51 718.534C700.195 717.691 701.88 717.691 702.723 718.534C704.408 719.376 705.251 720.219 706.936 721.903C707.778 722.746 708.621 724.43 708.621 725.273C708.621 726.115 708.621 727.8 707.778 728.642C706.936 729.485 706.093 731.169 705.251 732.012L697.667 738.751C699.352 740.435 700.195 741.278 701.88 742.12C702.723 742.962 704.408 742.962 706.093 742.962C707.778 742.962 708.621 742.12 710.306 740.435L717.047 734.539L718.732 736.223C717.89 737.066 716.204 738.75 715.362 739.593C714.519 740.435 714.519 742.12 712.834 743.805ZM696.825 737.066L704.408 730.327C705.251 729.485 706.093 728.642 706.093 727.8C706.093 726.957 706.093 726.115 705.251 724.43C704.408 723.588 703.565 722.746 701.88 721.903C701.038 721.903 700.195 721.903 699.352 721.903C698.51 721.903 696.825 722.746 695.982 724.43C694.297 726.115 693.454 726.957 693.454 727.8C692.612 728.642 693.454 730.327 693.454 732.012C694.297 732.854 695.139 734.539 696.825 737.066Z" fill="#2271BF"/>
<path d="M727.157 730.327L707.778 710.953L710.306 708.426L712.833 710.11C712.833 708.426 713.676 706.741 714.519 705.056C715.361 703.371 716.204 701.687 717.889 700.002C719.574 698.317 720.417 697.475 722.102 697.475C723.787 697.475 725.472 697.475 726.315 698.317C728 699.16 728.843 700.002 730.528 700.844L744.009 714.322L741.481 716.849L728 704.214C727.157 703.371 726.315 702.529 725.472 702.529C724.63 702.529 723.787 702.529 722.944 702.529C722.102 702.529 721.259 703.371 720.417 704.214C719.574 705.056 718.732 705.899 718.732 706.741C717.889 707.583 717.889 708.426 717.046 709.268C717.046 710.11 716.204 710.953 716.204 712.637L731.37 727.8L727.157 730.327Z" fill="#2271BF"/>
<path d="M755.807 700.002C754.964 700.844 754.964 700.844 754.122 701.686C753.279 702.529 752.437 703.371 751.594 704.214C750.752 705.056 749.909 705.898 749.909 705.898C749.909 705.898 749.066 706.741 748.224 707.583L746.539 705.898L754.122 697.475C754.964 696.632 755.807 695.79 755.807 694.948C755.807 694.105 756.65 693.263 755.807 692.421C755.807 691.578 754.964 690.736 754.122 689.893L753.279 689.051C752.437 688.209 751.594 688.209 750.752 688.209C749.909 688.209 748.224 689.051 747.381 690.736L744.853 694.105C744.011 694.948 742.326 696.632 741.483 696.632C740.64 697.475 738.955 697.475 738.113 697.475C737.27 697.475 735.585 696.632 733.9 695.79L733.057 694.948C731.372 694.105 730.529 692.421 730.529 691.578C730.529 690.736 730.529 689.051 730.529 687.366C731.372 685.682 732.215 683.997 733.9 682.312C734.742 681.47 735.585 680.627 736.427 679.785C737.27 678.943 738.113 678.1 738.955 677.258C739.798 676.416 740.64 675.573 741.483 675.573L743.168 677.258L736.427 685.682C735.585 687.366 734.742 688.209 734.742 689.051C734.742 689.893 734.742 691.578 736.427 692.421L737.27 693.263C738.113 694.105 738.955 694.105 739.798 694.105C740.64 694.105 741.483 694.105 741.483 693.263C742.326 692.42 743.168 692.421 743.168 691.578L745.696 688.209C747.381 686.524 749.066 684.839 750.752 684.839C752.437 684.839 754.122 684.839 755.807 686.524L757.492 687.366C759.177 688.209 760.02 689.893 760.02 691.578C760.02 693.263 760.02 694.105 759.178 695.79C758.335 697.475 757.492 698.317 755.807 700.002Z" fill="#2271BF"/>
<path d="M741.48 666.307C741.48 667.15 740.638 667.15 740.638 666.307L737.267 663.78C736.425 663.78 736.425 662.938 737.267 662.938L738.952 660.411C738.952 660.411 738.952 660.411 739.795 660.411C740.638 660.411 739.795 660.411 740.638 660.411L744.008 662.938C744.851 662.938 744.851 663.78 744.008 663.78L741.48 666.307ZM766.758 686.524L744.85 669.677L747.378 666.307L769.286 683.155L766.758 686.524Z" fill="#2271BF"/>
<path d="M775.184 674.731L754.962 660.411L752.434 663.78L749.907 662.096L751.592 657.884L749.064 656.199C747.379 655.357 746.536 653.672 745.694 652.83C744.851 651.987 744.851 650.303 744.851 649.46C744.851 647.775 745.694 646.933 746.536 645.248C747.379 644.406 748.222 643.564 748.222 642.721C748.222 641.879 749.064 641.879 749.907 641.037L752.434 642.721L749.907 646.933C749.064 647.775 749.064 648.618 749.064 649.46C749.064 650.303 749.064 651.145 749.907 651.987C750.749 652.83 751.592 653.672 752.434 653.672L754.962 655.357L760.018 648.618L762.546 650.303L757.49 657.041L777.712 671.362L775.184 674.731Z" fill="#2271BF"/>
<path d="M800.462 659.568L792.036 650.302C791.193 651.145 791.193 651.987 790.351 651.987C789.508 651.987 788.665 652.829 786.98 652.829C785.295 652.829 784.452 652.829 782.767 652.829L760.86 647.775L763.388 644.406L784.452 649.46C785.295 649.46 786.137 649.46 786.98 649.46C787.823 649.46 787.823 649.46 788.665 648.618L789.508 647.775V646.933L772.656 628.401L775.184 625.032L799.619 651.987L802.989 657.041L800.462 659.568Z" fill="#2271BF"/>
<path d="M800.464 598.076C799.622 598.918 799.622 599.761 797.937 598.918L794.566 597.234C793.724 597.234 793.724 596.391 793.724 596.391C793.724 596.391 793.724 595.549 793.724 594.707L795.409 591.337C796.251 590.495 797.094 589.652 797.937 590.495L801.307 592.18C802.15 592.18 802.15 593.022 802.15 593.022C802.15 593.022 802.15 593.864 802.15 594.707L800.464 598.076Z" fill="#2271BF"/>
<path d="M831.637 563.539L794.563 552.589L795.406 548.377L832.48 559.328L831.637 563.539Z" fill="#2271BF"/>
<path d="M835.008 550.904L808.045 544.165L808.888 540.796H812.258C811.416 539.111 811.416 537.426 810.573 535.741C810.573 534.057 810.573 532.372 810.573 529.845C811.416 528.16 812.258 526.475 813.101 525.633C813.944 524.791 815.629 523.948 817.314 523.948C818.999 523.948 820.684 523.948 822.37 523.948L840.907 528.16L840.064 532.372L822.37 528.16C821.527 528.16 819.842 528.16 818.999 528.16C818.157 528.16 817.314 529.002 816.471 529.845C815.629 530.687 815.629 531.53 814.786 532.372C814.786 533.214 814.786 534.899 813.944 535.741C813.944 536.584 813.944 537.426 813.944 539.111C813.944 539.953 813.944 540.795 814.786 542.48L835.851 547.534L835.008 550.904Z" fill="#2271BF"/>
<path d="M842.594 518.895L814.789 514.683L815.631 511.313H819.002C818.159 509.629 817.316 507.944 817.316 506.259C817.316 504.574 816.474 502.89 817.316 500.363C817.316 498.678 818.159 496.993 819.002 495.308C819.844 493.624 821.529 493.624 823.215 492.781C824.9 492.781 826.585 492.781 828.27 492.781L846.807 496.151L845.964 500.363L827.427 497.836C826.585 497.836 824.9 497.836 824.057 497.836C823.215 497.836 822.372 498.678 821.529 499.52C820.687 500.363 820.687 501.205 819.844 502.89C819.844 503.732 819.844 505.417 819.844 506.259C819.844 507.101 819.844 507.944 820.687 508.786C820.687 509.629 821.529 510.471 821.529 512.156L843.437 515.525L842.594 518.895Z" fill="#2271BF"/>
<path d="M848.491 475.934C848.491 477.618 847.648 479.303 847.648 480.988C846.806 482.673 845.963 483.515 845.12 484.357C844.278 485.2 842.593 486.042 840.907 486.042C839.222 486.042 836.694 486.042 834.167 486.042C831.639 486.042 829.111 485.2 827.426 484.357C825.741 483.515 824.056 482.673 823.213 481.83C822.37 480.988 821.528 479.303 821.528 477.619C821.528 475.934 821.528 474.249 821.528 472.564C821.528 470.88 822.37 469.195 822.37 467.51C823.213 465.825 824.056 464.983 824.898 464.141C825.741 463.298 827.426 462.456 829.111 462.456C830.796 462.456 833.324 461.614 835.852 462.456C838.38 462.456 840.907 463.298 842.593 464.141C844.278 464.983 845.963 465.825 846.806 466.668C847.648 467.51 848.491 469.195 848.491 470.88C848.491 471.722 848.491 474.249 848.491 475.934ZM845.12 475.934C845.12 474.249 845.12 473.407 845.12 472.564C845.12 471.722 844.278 470.88 843.435 470.037C842.593 469.195 841.75 468.353 840.065 468.353C838.38 467.51 836.694 467.51 834.167 467.51C831.639 467.51 829.954 467.51 828.269 467.51C826.583 467.51 825.741 468.353 824.898 468.353C824.056 469.195 823.213 470.037 823.213 470.88C823.213 471.722 822.37 472.564 822.37 474.249C822.37 475.934 822.37 476.776 822.37 477.619C822.37 478.461 823.213 479.303 824.056 480.146C824.898 480.988 825.741 481.83 827.426 481.83C829.111 482.673 830.796 482.673 833.324 482.673C835.852 482.673 837.537 482.673 839.222 482.673C840.907 482.673 841.75 481.83 842.593 481.83C843.435 480.988 844.278 480.146 844.278 479.303C845.12 478.461 845.12 476.776 845.12 475.934Z" fill="#2271BF"/>
<path d="M849.333 447.294L821.527 458.244V454.033L845.12 444.767L820.685 436.343V432.131L848.49 442.239L849.333 447.294Z" fill="#2271BF"/>
<path d="M848.49 420.338C848.49 422.023 848.49 423.707 846.805 425.392C845.962 427.077 844.277 427.919 841.749 427.919H840.064C837.536 427.919 835.851 427.919 835.009 426.234C834.166 424.55 832.481 422.865 832.481 419.496L831.638 410.23H828.268C827.425 410.23 826.583 410.23 825.74 411.072C824.898 411.914 824.055 411.914 824.055 413.599C824.055 414.441 823.212 416.126 824.055 417.811L824.898 426.234H822.37C822.37 425.392 821.527 423.707 821.527 422.023C821.527 420.338 820.685 418.653 820.685 416.126C820.685 413.599 820.685 411.914 820.685 410.23C821.527 408.545 822.37 407.703 823.212 406.86C824.055 406.018 825.74 405.175 828.268 405.175L847.648 403.491V406.86L844.277 407.702L845.12 408.545C845.12 409.387 845.962 410.23 846.805 411.072C847.648 411.914 847.648 413.599 848.49 414.441C848.49 417.811 848.49 419.496 848.49 420.338ZM845.962 418.653C845.962 417.811 845.962 416.968 845.962 416.126C845.962 415.284 845.12 414.441 845.12 413.599C845.12 412.757 844.277 411.914 844.277 411.072C844.277 410.23 843.435 410.23 843.435 409.387C843.435 408.545 843.435 408.545 843.435 408.545L835.009 409.387L835.851 417.811C835.851 419.496 836.694 421.18 837.536 422.023C838.379 422.865 840.064 422.865 840.907 422.865H841.749C842.592 422.865 843.435 422.865 844.277 422.023C845.12 421.18 845.12 421.18 845.962 420.338C845.962 420.338 845.962 419.496 845.962 418.653Z" fill="#2271BF"/>
<path d="M845.122 386.644C845.122 388.328 845.122 390.013 845.122 390.856C845.122 391.698 844.279 393.383 842.594 394.225C841.751 395.067 840.066 395.067 837.538 395.91L822.372 397.594L823.214 401.806H820.686L819.001 397.594H811.418L810.575 394.225L818.159 393.383L817.316 385.801L820.686 384.959L821.529 394.225L836.696 391.698C837.538 391.698 839.223 390.856 839.223 390.856C840.066 390.856 840.066 390.013 840.909 390.013C840.909 389.171 841.751 389.171 841.751 388.328C841.751 387.486 841.751 387.486 841.751 386.644V383.274H845.122V386.644Z" fill="#2271BF"/>
<path d="M841.749 364.742C842.592 367.269 842.592 369.796 841.749 371.481C840.906 373.166 840.064 374.851 838.379 375.693C836.694 376.535 834.166 377.378 829.953 378.22C826.582 379.062 823.212 379.062 821.527 379.062C818.999 379.062 817.314 378.22 816.471 376.535C815.629 374.851 814.786 373.166 813.943 369.796C813.101 367.269 813.101 365.585 813.943 363.9C813.943 362.215 814.786 361.373 815.629 359.688C816.471 358.846 818.156 358.003 820.684 357.161C822.369 357.161 824.055 357.161 824.897 357.161C825.74 358.003 826.582 358.003 827.425 359.688C828.268 361.373 828.267 362.215 829.11 363.9L830.795 374.008C833.323 373.166 835.008 373.166 835.851 372.323C836.693 371.481 837.536 370.639 838.379 368.954C838.379 367.269 838.379 365.585 838.379 363.9L836.694 355.476L839.221 354.634C840.064 356.319 840.064 358.003 840.907 358.846C840.907 361.373 840.906 363.057 841.749 364.742ZM828.268 375.693L826.582 365.585C826.582 363.9 825.74 363.057 824.897 362.215C824.055 361.373 823.212 361.373 821.527 361.373C819.842 361.373 818.999 362.215 818.156 363.057C817.314 363.9 817.314 364.742 816.471 365.585C816.471 366.427 816.471 368.112 816.471 369.796C816.471 371.481 817.314 373.166 818.156 374.008C818.999 374.851 819.842 375.693 821.527 375.693C823.212 375.693 825.74 376.535 828.268 375.693Z" fill="#2271BF"/>
<path d="M146.61 272.083L104.48 215.644L109.536 208.063L176.943 227.438L172.731 233.334L153.351 228.28L139.027 249.339L150.823 265.344L146.61 272.083ZM134.814 244.285L147.453 225.753L112.064 215.644L134.814 244.285Z" fill="#2271BF"/>
<path d="M207.277 196.27L164.305 145.728L182.842 130.566C187.055 127.196 191.268 125.512 195.481 125.512C199.694 125.512 203.064 128.039 207.277 132.25C208.963 134.778 210.648 136.462 210.648 138.989C211.49 141.516 211.49 143.201 211.49 144.886C211.49 146.571 210.648 148.255 209.805 149.94C210.648 149.098 212.333 149.098 214.018 148.255C215.703 148.255 217.389 147.413 219.074 148.255C220.759 148.255 222.444 149.098 224.129 149.94C225.814 150.782 227.5 152.467 229.185 154.152C232.555 157.521 234.24 160.891 234.24 164.26C234.24 167.63 234.24 170.157 233.398 172.684C231.713 175.211 230.027 177.738 226.657 180.265L207.277 196.27ZM188.74 163.418L202.222 152.467C204.75 150.782 205.592 148.255 205.592 145.728C205.592 143.201 204.75 139.832 202.222 137.305C199.694 133.935 197.166 132.25 194.639 132.25C192.111 132.25 189.583 133.093 187.055 134.778L174.416 145.728L188.74 163.418ZM208.12 186.162L221.602 175.211C223.287 173.526 224.972 171.841 225.814 170.157C226.657 168.472 226.657 166.787 226.657 164.26C225.814 162.575 224.972 160.048 222.444 157.521C220.759 155.837 219.074 154.152 217.389 153.309C215.703 152.467 213.176 152.467 211.49 153.309C209.805 154.152 207.277 154.994 205.592 155.837L192.111 166.787L208.12 186.162Z" fill="#2271BF"/>
<path d="M277.213 144.886L248.564 84.2358L272.157 72.4428C273.842 71.6004 275.527 70.7581 278.055 70.7581C279.74 70.7581 282.268 70.7581 284.796 70.7581C287.324 71.6004 289.009 72.4428 291.537 74.9699C294.064 76.6546 295.75 80.024 297.435 84.2358C299.12 88.4476 300.805 91.8171 300.805 95.1865C300.805 98.556 300.805 101.083 299.963 102.768C299.12 105.295 297.435 106.98 295.75 107.822C294.064 109.507 292.379 110.349 290.694 111.191C289.851 111.191 289.009 112.034 287.324 112.876C285.639 113.718 283.953 114.561 282.268 115.403C280.583 116.246 278.898 117.088 277.213 117.088C275.527 117.93 274.685 117.93 273.842 118.773L283.953 140.674L277.213 144.886ZM270.472 114.561L286.481 106.98C288.166 106.137 289.851 104.453 291.537 103.61C292.379 101.925 293.222 100.241 293.222 97.7136C293.222 95.1865 292.379 92.6595 290.694 88.4476C289.009 85.0782 287.324 82.5511 285.639 80.8664C283.953 79.1817 282.268 78.3393 279.74 78.3393C277.213 78.3393 276.37 78.3393 274.685 79.1817L257.833 87.6053L270.472 114.561Z" fill="#2271BF"/>
<path d="M357.259 112.034L345.463 46.3299L352.204 44.6451L357.259 74.9702L390.12 69.0736L385.065 38.7486L391.805 37.9062L403.602 103.61L396.861 104.453L391.805 75.8125L358.944 81.709L364 110.349L357.259 112.034Z" fill="#2271BF"/>
<path d="M468.48 104.453L470.165 82.5513L453.313 36.2214L460.896 37.0638L474.378 75.8124L495.443 40.4332L503.026 41.2756L477.748 83.3937L476.063 105.295L468.48 104.453Z" fill="#2271BF"/>
<path d="M555.266 123.827C554.423 122.985 552.738 122.985 551.053 122.142C549.368 121.3 547.683 120.458 545.998 119.615C544.312 118.773 542.627 117.931 540.942 117.088C539.257 116.246 538.414 115.403 536.729 115.403L538.414 110.349C540.099 111.192 541.785 112.034 543.47 112.876C545.155 113.719 547.683 114.561 550.211 115.403C552.738 116.246 555.266 117.088 556.951 117.931C559.479 118.773 562.007 119.615 564.535 119.615C567.062 119.615 568.748 119.615 570.433 118.773C572.118 117.931 573.803 116.246 574.646 113.719L576.331 109.507C577.173 106.98 577.173 104.453 576.331 101.926C575.488 100.241 572.96 98.5563 569.59 96.8716L562.849 94.3445C557.794 92.6598 554.423 90.1327 551.896 86.7632C550.211 83.3938 549.368 79.182 551.896 73.2854L553.581 69.916C556.109 64.0195 558.636 60.65 562.849 58.9653C567.062 57.2806 572.118 58.1229 578.016 59.8077C579.701 60.65 582.229 61.4924 583.914 62.3348C585.599 63.1771 588.127 64.0195 590.655 65.7042C592.34 66.5466 594.025 67.3889 595.71 68.2313L594.025 73.2854C591.498 72.4431 588.97 70.7584 585.599 69.916C582.229 68.2313 579.701 67.3889 577.173 66.5466C574.646 65.7042 572.118 64.8618 570.433 64.8618C568.748 64.8618 566.22 65.7042 565.377 66.5466C563.692 67.3889 562.849 69.916 561.164 72.4431L560.322 74.9702C559.479 78.3396 559.479 80.8667 560.322 83.3938C562.007 85.0785 563.692 86.7632 567.062 88.448L574.646 90.975C578.016 91.8174 580.544 93.5021 582.229 96.0292C583.914 97.7139 584.757 100.241 585.599 102.768C585.599 105.295 585.599 107.822 584.757 111.192L583.072 116.246C581.386 120.458 579.701 122.985 577.173 124.669C574.646 126.354 571.275 127.197 568.748 126.354C562.849 125.512 559.479 124.669 555.266 123.827Z" fill="#2271BF"/>
<path d="M615.936 151.625L651.324 95.1867L657.223 99.3985L621.834 155.837L615.936 151.625Z" fill="#2271BF"/>
<path d="M675.758 198.797C673.23 196.27 670.702 193.743 669.017 190.373C667.332 187.846 666.489 184.477 667.332 181.95C667.332 178.58 669.017 175.211 671.545 171.842C674.073 168.472 677.443 163.418 682.499 158.364C687.554 153.31 691.767 149.94 695.138 147.413C698.508 144.886 701.878 143.201 705.249 143.201C708.619 142.359 711.147 143.201 714.517 144.886C717.045 146.571 720.415 148.255 722.943 150.783C724.628 152.467 725.471 153.31 727.156 154.994C728.841 156.679 729.684 158.364 731.369 160.049C733.054 161.733 733.897 163.418 734.74 165.103L731.369 169.314C730.527 168.472 729.684 167.63 728.841 165.945C727.999 164.26 726.314 162.576 724.628 160.891C722.943 159.206 721.258 157.521 719.573 155.837C717.045 153.31 715.36 151.625 712.832 150.783C710.304 149.94 708.619 149.098 706.091 149.94C703.564 150.783 701.036 151.625 698.508 154.152C695.98 156.679 691.767 159.206 688.397 163.418C684.184 167.63 681.656 170.999 679.128 174.369C676.601 177.738 675.758 180.265 675.758 182.792C675.758 185.319 675.758 187.004 676.601 189.531C677.443 191.216 679.128 193.743 681.656 196.27C685.026 199.639 687.554 202.167 690.082 203.851C692.61 205.536 694.295 207.221 695.98 208.063L692.61 212.275C690.925 211.433 689.24 210.59 687.554 208.905C685.869 207.221 684.184 206.378 682.499 204.694C678.286 202.167 676.601 200.482 675.758 198.797Z" fill="#2271BF"/>
<path d="M726.315 261.974C725.473 261.132 724.63 259.447 723.788 257.762C722.945 256.078 722.102 254.393 721.26 252.708C720.417 251.023 719.575 249.339 718.732 247.654C717.889 245.969 717.047 245.127 717.047 243.442L722.102 240.915C722.945 242.6 723.788 244.284 724.63 245.969C725.473 247.654 727.158 250.181 728 251.866C728.843 253.55 730.528 256.078 732.213 257.762C733.899 260.289 735.584 261.974 736.426 263.659C738.112 265.343 739.797 266.186 741.482 266.186C743.167 266.186 745.695 266.186 748.223 264.501L752.436 261.974C754.964 260.289 756.649 258.605 757.491 256.077C758.334 253.55 757.491 251.023 755.806 248.496L752.436 242.6C749.908 237.546 748.223 233.334 749.065 229.964C749.065 225.753 752.436 222.383 757.491 219.014L760.862 217.329C765.917 213.959 770.973 213.117 775.186 214.802C779.399 216.487 782.769 219.856 786.14 224.91C786.982 226.595 787.825 228.28 789.51 230.807C790.352 233.334 792.038 235.018 792.88 237.546C793.723 240.073 794.565 241.757 795.408 242.6L790.352 245.127C789.51 242.6 787.825 240.073 786.14 237.546C784.454 235.018 782.769 231.649 781.084 229.122C779.399 226.595 777.714 224.91 776.871 223.225C775.186 221.541 773.501 221.541 771.815 221.541C770.13 221.541 767.602 222.383 765.075 224.068L762.547 225.753C759.176 227.437 757.491 229.964 757.491 232.491C757.491 235.018 758.334 237.546 760.019 240.073L764.232 246.812C765.917 250.181 767.602 252.708 767.602 255.235C767.602 257.762 766.76 260.289 765.917 262.816C764.232 265.343 762.547 267.028 760.019 268.713L755.806 271.24C751.593 273.767 748.223 274.609 745.695 274.609C742.325 274.609 739.797 272.925 737.269 270.398C734.741 267.871 728.843 265.343 726.315 261.974Z" fill="#2271BF"/>
<defs>
<linearGradient id="paint0_linear" x1="437.503" y1="440.35" x2="767.927" y2="440.35" gradientUnits="userSpaceOnUse">
<stop stop-color="#0071BC"/>
<stop offset="1" stop-color="#1B1464"/>
</linearGradient>
<linearGradient id="paint1_linear" x1="222.142" y1="446.876" x2="670.782" y2="446.876" gradientUnits="userSpaceOnUse">
<stop stop-color="#0071BC"/>
<stop offset="1" stop-color="#1B1464"/>
</linearGradient>
<linearGradient id="paint2_linear" x1="477.3" y1="395.554" x2="538.565" y2="334.272" gradientUnits="userSpaceOnUse">
<stop stop-color="#29ABE2"/>
<stop offset="1" stop-color="#1B1464"/>
</linearGradient>
<linearGradient id="paint3_linear" x1="556.291" y1="368.534" x2="606.662" y2="318.149" gradientUnits="userSpaceOnUse">
<stop stop-color="#0071BC"/>
<stop offset="1" stop-color="#662D91"/>
</linearGradient>
<linearGradient id="paint4_linear" x1="548.779" y1="426.586" x2="589.675" y2="385.679" gradientUnits="userSpaceOnUse">
<stop stop-color="#004DBC"/>
<stop offset="1" stop-color="#1B1464"/>
</linearGradient>
<linearGradient id="paint5_linear" x1="343.426" y1="272.213" x2="389.163" y2="289.872" gradientUnits="userSpaceOnUse">
<stop stop-color="#29ABE2"/>
<stop offset="1" stop-color="#2E3192"/>
</linearGradient>
<linearGradient id="paint6_linear" x1="320.552" y1="263.385" x2="412.036" y2="298.708" gradientUnits="userSpaceOnUse">
<stop stop-color="#29ABE2"/>
<stop offset="1" stop-color="#2E3192"/>
</linearGradient>
<linearGradient id="paint7_linear" x1="320.55" y1="263.386" x2="412.034" y2="298.708" gradientUnits="userSpaceOnUse">
<stop stop-color="#29ABE2"/>
<stop offset="1" stop-color="#2E3192"/>
</linearGradient>
<linearGradient id="paint8_linear" x1="354.859" y1="276.625" x2="377.727" y2="285.455" gradientUnits="userSpaceOnUse">
<stop stop-color="#29ABE2"/>
<stop offset="1" stop-color="#713192"/>
</linearGradient>
<linearGradient id="paint9_linear" x1="318.701" y1="274.07" x2="329.21" y2="274.07" gradientUnits="userSpaceOnUse">
<stop stop-color="#C2C1D6"/>
<stop offset="1" stop-color="#546B74"/>
</linearGradient>
<linearGradient id="paint10_linear" x1="374.589" y1="323.782" x2="385.098" y2="323.782" gradientUnits="userSpaceOnUse">
<stop stop-color="#C2C1D6"/>
<stop offset="1" stop-color="#546B74"/>
</linearGradient>
<linearGradient id="paint11_linear" x1="387.631" y1="246.25" x2="398.14" y2="246.25" gradientUnits="userSpaceOnUse">
<stop stop-color="#C2C1D6"/>
<stop offset="1" stop-color="#546B74"/>
</linearGradient>
<linearGradient id="paint12_linear" x1="443.347" y1="271.212" x2="525.65" y2="271.212" gradientUnits="userSpaceOnUse">
<stop stop-color="#29ABE2"/>
<stop offset="1" stop-color="#683192"/>
</linearGradient>
<linearGradient id="paint13_linear" x1="473.751" y1="235.451" x2="491.426" y2="235.451" gradientUnits="userSpaceOnUse">
<stop stop-color="white" stop-opacity="0.8"/>
<stop offset="1" stop-color="#0071BC"/>
</linearGradient>
<linearGradient id="paint14_linear" x1="512.407" y1="268.057" x2="528.728" y2="277.482" gradientUnits="userSpaceOnUse">
<stop stop-color="white" stop-opacity="0.8"/>
<stop offset="1" stop-color="#0071BC"/>
</linearGradient>
<linearGradient id="paint15_linear" x1="497.295" y1="242.227" x2="529.241" y2="242.227" gradientUnits="userSpaceOnUse">
<stop stop-color="#29ABE2"/>
<stop offset="1" stop-color="#2E3192"/>
</linearGradient>
</defs>
</svg>
